<svg width="117" height="32" viewBox="0 0 117 32" fill="none" xmlns="http://www.w3.org/2000/svg">
<path fill-rule="evenodd" clip-rule="evenodd" d="M38.5029 16.7318L38.8998 14.4659C38.8998 14.4659 35.8419 13.4713 33.3535 15.3169V24.3772H35.9955V17.0172C37.0482 16.1662 38.5029 16.7318 38.5029 16.7318Z" fill="#00425F"/>
<path fill-rule="evenodd" clip-rule="evenodd" d="M15.7173 11.8815L18.3593 11.3833V14.3238H20.9737V16.6815H18.3593V20.198C18.3353 20.6911 18.4368 21.1821 18.6544 21.625C18.8494 21.9814 19.2411 22.1578 19.8295 22.1578C20.125 22.1573 20.4197 22.1284 20.7096 22.0713C20.99 22.0179 21.2649 21.9391 21.531 21.8361L21.9141 24.0501C21.5695 24.1966 21.2141 24.3163 20.8511 24.4082C20.38 24.5179 19.8972 24.569 19.4137 24.5604C18.8015 24.5797 18.1919 24.4731 17.6224 24.2473C17.1761 24.0574 16.7862 23.7553 16.4904 23.3703C16.1934 22.9681 15.9905 22.504 15.8968 22.0125C15.7782 21.4308 15.7204 20.8384 15.7242 20.2447L15.7173 11.8815Z" fill="#00425F"/>
<path fill-rule="evenodd" clip-rule="evenodd" d="M42.8118 22.3516C43.1639 22.3739 43.5168 22.3215 43.8472 22.1977C44.0491 22.0973 44.1458 21.8984 44.1458 21.6096C44.1393 21.4844 44.1 21.3632 44.0318 21.2581C43.9636 21.153 43.869 21.0678 43.7575 21.0111C43.3805 20.7805 42.9831 20.5854 42.5702 20.4282C42.1578 20.2552 41.7816 20.0926 41.4434 19.9092C41.1232 19.7454 40.8318 19.5304 40.5806 19.2727C40.3387 19.0169 40.1514 18.7144 40.0301 18.3836C39.89 17.988 39.8239 17.5699 39.8351 17.1503C39.8351 16.2145 40.1612 15.4708 40.8101 14.9259C41.4589 14.381 42.3494 14.106 43.4866 14.106C44.0344 14.1042 44.5808 14.1593 45.1173 14.2703C45.5395 14.3495 45.9541 14.4652 46.3564 14.6163L45.9008 16.8355C45.5727 16.7154 45.2379 16.6143 44.8982 16.5328C44.5024 16.4392 44.0968 16.3933 43.6902 16.3962C42.8636 16.3962 42.4494 16.647 42.4494 17.1399C42.4474 17.2439 42.4656 17.3473 42.5029 17.4444C42.5501 17.5464 42.6226 17.6345 42.7135 17.7004C42.8511 17.8016 42.9971 17.8907 43.1501 17.9668C43.3781 18.0846 43.612 18.1908 43.8507 18.285C44.3454 18.4743 44.8248 18.7016 45.2847 18.9648C45.6218 19.1556 45.9245 19.4018 46.1803 19.693C46.396 19.9435 46.5534 20.2389 46.6411 20.5579C46.7338 20.9165 46.7785 21.2858 46.774 21.6563C46.774 22.6434 46.4288 23.39 45.7386 23.8963C45.0483 24.4025 44.0704 24.655 42.8049 24.6539C41.7048 24.6796 40.6116 24.4721 39.5969 24.045L40.0404 21.7445C40.4872 21.9326 40.949 22.0825 41.421 22.1925C41.881 22.2996 42.3516 22.3541 42.8239 22.3551" fill="#00425F"/>
<path fill-rule="evenodd" clip-rule="evenodd" d="M54.9054 18.6415C54.669 19.6049 54.4188 20.565 54.153 21.5128C53.8873 22.4607 53.6043 23.4155 53.3126 24.3859H51.2505C51.0365 23.8532 50.8064 23.2189 50.5602 22.4832C50.31 21.7464 50.0528 20.9455 49.7854 20.0737C49.5179 19.2019 49.247 18.2886 48.9691 17.3165C48.6913 16.3444 48.4186 15.3688 48.1598 14.376H50.9433C51.0365 14.8309 51.1417 15.3308 51.2556 15.8687C51.3695 16.4067 51.4869 16.9637 51.6111 17.5345C51.7354 18.1053 51.8682 18.6761 52.0028 19.2538C52.1374 19.8315 52.2859 20.3989 52.4256 20.9178C52.5786 20.3597 52.7293 19.7895 52.8778 19.2071C53.0227 18.6242 53.1659 18.0499 53.3023 17.486C53.4386 16.9221 53.5697 16.3773 53.6923 15.8497C53.8148 15.3221 53.9235 14.8309 54.0201 14.376H55.9322C56.0305 14.8309 56.1341 15.3239 56.2532 15.8497C56.3722 16.3755 56.4947 16.9239 56.6259 17.486C56.757 18.0482 56.8934 18.6242 57.0314 19.2071C57.1695 19.79 57.3213 20.3591 57.4732 20.9178C57.6159 20.3851 57.7591 19.8304 57.9029 19.2538C58.0467 18.6772 58.1801 18.1041 58.3032 17.5345C58.4275 16.9579 58.5466 16.4026 58.6605 15.8687C58.7743 15.3308 58.8779 14.8309 58.9711 14.376H61.7201C61.4578 15.3654 61.1903 16.3444 60.9107 17.3165C60.6312 18.2886 60.3602 19.2071 60.0928 20.0737C59.8253 20.9403 59.5664 21.7464 59.3128 22.4832C59.0591 23.2201 58.8209 23.8514 58.6104 24.3859H56.5534C56.2566 23.423 55.969 22.4653 55.6906 21.5128C55.4076 20.565 55.1505 19.6101 54.9123 18.6415" fill="#00425F"/>
<path d="M66.2226 14.3794H63.587V24.3824H66.2226V14.3794Z" fill="#00425F"/>
<path fill-rule="evenodd" clip-rule="evenodd" d="M68.3224 11.8849L70.9627 11.3833V14.3844H73.5736V16.7368H70.9627V20.2568C70.9395 20.7494 71.0397 21.24 71.2543 21.6838C71.4476 22.0384 71.8428 22.2166 72.4312 22.2166C73.0146 22.2151 73.5926 22.1055 74.1362 21.8931L74.5072 24.1003C74.1626 24.2477 73.8072 24.3685 73.4442 24.4618C72.9737 24.5717 72.4915 24.6228 72.0084 24.614C71.3959 24.6343 70.7859 24.5265 70.2172 24.2975C69.7693 24.1111 69.3783 23.8099 69.0834 23.4239C68.7887 23.0204 68.5861 22.5568 68.4898 22.0661C68.3707 21.4839 68.3129 20.8909 68.3172 20.2966L68.3224 11.8849Z" fill="#00425F"/>
<path fill-rule="evenodd" clip-rule="evenodd" d="M75.4391 19.3849C75.435 18.6899 75.5458 17.999 75.767 17.3403C75.971 16.7257 76.2928 16.1569 76.7143 15.6659C77.132 15.1862 77.6459 14.8001 78.2226 14.533C78.8566 14.2462 79.5461 14.1032 80.2416 14.1144C80.7011 14.1115 81.1594 14.1597 81.6083 14.2579C82.0233 14.3544 82.4278 14.4911 82.8163 14.6662L82.2693 16.9286C82.0016 16.8236 81.7278 16.7346 81.4496 16.6623C81.1247 16.5837 80.7915 16.5453 80.4573 16.5481C79.6773 16.5481 79.094 16.8093 78.7127 17.3299C78.3313 17.8506 78.1363 18.5408 78.1363 19.3849C78.1363 20.2843 78.3089 20.9814 78.6799 21.4761C79.0509 21.9708 79.667 22.2182 80.5643 22.2182C80.9115 22.2155 81.2578 22.1837 81.5997 22.123C81.9485 22.065 82.2884 21.9621 82.6109 21.8169L82.9802 24.1382C82.6097 24.2971 82.224 24.4182 81.8292 24.4997C81.3281 24.6046 80.8173 24.6557 80.3055 24.6519C79.5527 24.6699 78.8045 24.5302 78.1087 24.2419C77.5255 23.9921 77.0072 23.6116 76.5935 23.1297C76.1899 22.6437 75.8956 22.0761 75.7307 21.4657C75.5419 20.7903 75.449 20.0915 75.4546 19.3901" fill="#00425F"/>
<path fill-rule="evenodd" clip-rule="evenodd" d="M84.6765 24.377V11.8815L87.3168 11.3833V14.4207C87.5428 14.3455 87.7733 14.2849 88.007 14.2391C88.2722 14.1839 88.5421 14.1549 88.8129 14.1526C89.4578 14.1329 90.0999 14.2465 90.6991 14.4864C91.1774 14.688 91.5941 15.0126 91.907 15.4274C92.2202 15.8579 92.4384 16.3502 92.5473 16.8717C92.6756 17.4854 92.7375 18.1111 92.7319 18.7381V24.377H90.0778V19.0771C90.0778 18.165 89.9691 17.5181 89.7517 17.1364C89.5325 16.761 89.127 16.569 88.5437 16.569C88.32 16.5679 88.0968 16.5899 87.8776 16.6348C87.6723 16.6797 87.4859 16.7282 87.3202 16.7783V24.3891L84.6765 24.377Z" fill="#00425F"/>
<path fill-rule="evenodd" clip-rule="evenodd" d="M5.0647 24.3855V15.32C5.0647 15.32 6.39173 14.1836 9.29603 14.1836C11.9363 14.1836 13.3876 15.6002 13.3876 18.7172V24.3855H10.749V18.7172C10.749 16.7315 9.82235 16.5948 9.02337 16.5948C8.55035 16.5952 8.08908 16.7426 7.70324 17.0169V24.3855H5.0647Z" fill="#00425F"/>
<path fill-rule="evenodd" clip-rule="evenodd" d="M0.0932617 24.3839V11.8814L2.73395 11.3833V24.3839H0.0932617Z" fill="#00425F"/>
<path fill-rule="evenodd" clip-rule="evenodd" d="M27.1947 16.1348C25.4777 16.1348 25.3448 18.1171 25.3448 18.1171H29.0412C29.0412 18.1171 28.9117 16.1348 27.1947 16.1348ZM31.288 20.1011H25.3448C25.3448 20.1011 25.4777 22.2252 28.1162 22.2252C29.0118 22.204 29.9004 22.062 30.7582 21.8032L31.0222 24.0726C30.0095 24.451 28.9364 24.6409 27.8556 24.633C25.2136 24.633 22.8374 23.2198 22.8374 19.2535C22.8374 16.14 24.6839 14.1543 27.3241 14.1543C31.2932 14.1543 31.552 18.3973 31.2932 20.1011" fill="#00425F"/>
<path fill-rule="evenodd" clip-rule="evenodd" d="M98.1019 31.8787C97.0234 31.5898 106.71 19.4679 105.096 14.5589C104.29 11.9643 96.2192 12.2532 96.2192 11.3849C96.2192 10.5165 111.83 8.21426 113.303 10.3764C115.597 13.4121 99.4514 32.4564 98.1054 31.8787" fill="#EE312A"/>
<path fill-rule="evenodd" clip-rule="evenodd" d="M116.931 3.8814C116.931 5.95708 115.367 7.63318 113.435 7.63318C111.502 7.63318 109.938 5.95708 109.938 3.8814C109.938 1.80572 111.504 0.131348 113.435 0.131348C115.366 0.131348 116.931 1.80918 116.931 3.8814Z" fill="#EE312A"/>
</svg>
