<?xml version="1.0" standalone="no"?>
<!DOCTYPE svg PUBLIC "-//W3C//DTD SVG 20010904//EN"
 "http://www.w3.org/TR/2001/REC-SVG-20010904/DTD/svg10.dtd">
<svg version="1.0" xmlns="http://www.w3.org/2000/svg"
 width="700.000000pt" height="700.000000pt" viewBox="0 0 700.000000 700.000000"
 preserveAspectRatio="xMidYMid meet">
<metadata>
Created by potrace 1.14, written by Peter Selinger 2001-2017
</metadata>
<g transform="translate(0.000000,700.000000) scale(0.100000,-0.100000)"
fill="#000000" stroke="none">
<path d="M4918 6784 c-2 -1 -21 -4 -43 -7 -198 -28 -392 -162 -502 -346 -41
-67 -88 -184 -98 -241 -16 -89 -21 -157 -18 -217 25 -421 338 -738 728 -736
284 1 542 184 655 465 113 282 61 613 -132 833 -142 163 -306 240 -530 249
-32 2 -59 2 -60 0z"/>
<path d="M3917 4854 c-1 -1 -78 -4 -172 -8 -178 -6 -257 -11 -390 -22 -144
-11 -137 -11 -325 -30 -30 -3 -71 -7 -90 -9 -19 -2 -60 -7 -90 -10 -30 -3
-100 -12 -155 -20 -55 -8 -122 -17 -150 -20 -57 -7 -99 -13 -135 -20 -14 -2
-43 -7 -65 -10 -82 -11 -276 -45 -345 -60 -14 -3 -36 -7 -50 -10 -130 -24
-389 -92 -448 -117 -38 -17 -82 -48 -82 -58 0 -21 46 -49 113 -68 65 -18 96
-25 177 -38 14 -2 41 -7 60 -11 19 -3 44 -7 55 -8 11 -1 36 -5 55 -8 19 -4 53
-9 75 -12 22 -3 58 -8 80 -12 64 -10 68 -11 115 -17 25 -3 54 -7 65 -10 11 -2
40 -7 65 -11 56 -9 78 -13 110 -20 33 -7 68 -14 105 -21 17 -3 48 -9 70 -15
22 -5 51 -12 65 -15 78 -16 327 -109 398 -149 206 -116 265 -239 258 -535 -2
-85 -6 -165 -9 -176 -3 -12 -8 -37 -11 -55 -35 -223 -166 -590 -334 -939 -25
-52 -46 -97 -47 -100 0 -3 -11 -25 -24 -50 -205 -396 -310 -581 -656 -1160
-298 -498 -380 -648 -404 -735 -14 -52 -14 -53 9 -65 76 -41 411 255 910 805
122 135 136 151 199 225 36 41 67 77 70 80 27 21 551 665 676 830 27 36 53 70
57 75 89 113 296 394 413 560 85 121 315 466 315 472 0 4 6 14 14 22 8 9 23
32 34 51 11 19 53 89 93 155 261 431 412 807 403 1005 -4 78 -5 85 -29 134
-54 111 -251 174 -630 202 -73 5 -413 12 -418 8z"/>
</g>
</svg>
